<svg xmlns="http://www.w3.org/2000/svg" viewBox="-255.268 463.763 10 10.244">
    <path d="M-245.507 470.287a4.998 4.998 0 1 0-9.522-3.046 5 5 0 0 0 3.238 6.284c2.234.715 4.454.609 6.075-.135-1.408-.557-.897-1.201-.682-1.46a4.891 4.891 0 0 0 .891-1.643zm-6.339-1.068c-.622 0-1.126-.52-1.126-1.16 0-.553.376-1.016.88-1.131a.885.885 0 0 0 .867.994.848.848 0 0 0 .472-.144c.022.09.035.184.035.28-.001.641-.506 1.161-1.128 1.161zm2.962 0c-.622 0-1.126-.52-1.126-1.16 0-.097.013-.19.034-.28a.845.845 0 0 0 .472.144.885.885 0 0 0 .866-.994c.504.115.88.578.88 1.131 0 .639-.504 1.159-1.126 1.159z" fill="currentColor" />
</svg>