<svg xmlns="http://www.w3.org/2000/svg" viewBox="-260.049 461.553 10 11">
    <path d="M-258.46 467.163a.146.146 0 0 1-.292 0v-2.295c-.808.65-1.298 1.508-1.298 2.445 0 2.895 2.307 5.24 5.153 5.24 2.677 0 4.847-1.818 4.847-4.062v-4.089c0-.607-.5-1.102-1.115-1.102-.449 0-.836.263-1.013.641l-.005-.009c.059-.134.092-.282.092-.438 0-.609-.5-1.102-1.115-1.102-.402 0-.753.21-.949.525a1.11 1.11 0 0 0-1.11-1.208c-.447 0-.831.261-1.009.636a1.113 1.113 0 0 0-1.07-.793c-.616 0-1.116.493-1.116 1.102v4.509z" fill="currentColor" />
</svg>