<svg xmlns="http://www.w3.org/2000/svg" viewBox="-256.469 468.612 10 12">
    <path d="M-251.207 470.811c.218-.459.396-.962.535-1.443.095-.33.125-.814.071-.75-.934 1.105-2.393 2.544-3.91 3.51a2.608 2.608 0 0 0-.204.202l-1.601 2.671c-.165.273-.308.555.204.429 1.292-.316 4.478-1.089 4.742-1.156.332-.085.465-.45.482-.632a2.302 2.302 0 0 0-.09-.9c-.096-.317.091-.453.245-.122.188.405.259.868.187 1.333.042.023.098.053.161.081a2.296 2.296 0 0 1 1.194 2.026c0 1.266-1.002 2.291-2.239 2.291-.759 0-1.45-.299-1.966-.789.204.34.448.653.726.932a5.191 5.191 0 0 1-1.432-.958c.274.471.617.894 1.012 1.253a4.29 4.29 0 0 1-1.984-1.554 5.343 5.343 0 0 0 1.19 1.767 5.282 5.282 0 0 1-2.066-2.301c.447 2.232 2.378 3.912 4.692 3.912 2.645 0 4.789-2.194 4.789-4.901 0-2.691-2.116-4.874-4.738-4.901zm-3.526 3.12c.038-.327 1.028-1.536 1.623-1.513.297 1.155-1.028 1.513-1.623 1.513z" fill="currentColor" />
</svg>