<svg xmlns="http://www.w3.org/2000/svg" viewBox="-255 461.594 10 10">
    <path d="M-245 465.963c0-2.413-2.238-4.369-5-4.369s-5 1.956-5 4.369c0 1.321.672 2.504 1.733 3.305a1.87 1.87 0 0 0-.176.802c0 .843.523 1.524 1.169 1.524.553 0 1.015-.502 1.137-1.174.122.672.583 1.174 1.137 1.174.553 0 1.015-.501 1.137-1.174.122.673.584 1.174 1.137 1.174.646 0 1.169-.682 1.169-1.524 0-.294-.065-.568-.176-.802 1.061-.801 1.733-1.984 1.733-3.305zm-2.527 1.787c-.647.566-1.526.878-2.473.878s-1.825-.312-2.473-.878c-.568-.496-.88-1.131-.88-1.787 0-.657.313-1.292.88-1.788.647-.565 1.526-.878 2.473-.878s1.825.313 2.473.878c.567.496.88 1.131.88 1.788 0 .656-.313 1.291-.88 1.787z" fill="currentColor" />
</svg>