<svg xmlns="http://www.w3.org/2000/svg" viewBox="-256.438 463.688 9.983 10.5">
    <path d="M-254.748 469.317c0-2.178 1.591-3.943 3.554-3.943 1.685 0 3.052 1.204 3.052 2.689 0 1.359-.927 2.462-2.07 2.462-1.143 0-2.07-.715-2.07-1.596s.654-1.596 1.461-1.596a1.08 1.08 0 0 1 1.081 1.079c0 .47-.37.851-.826.851-.347 0-.627-.23-.627-.516 0-.079-.001-.17-.005-.249-.007-.122-.179-.225-.269-.096a.724.724 0 0 0-.114.405c0 .545.545.987 1.217.987.815 0 1.477-.616 1.477-1.375 0-1.07-.899-1.938-2.009-1.938-1.328 0-2.405 1.194-2.405 2.667 0 1.549 1.42 2.803 3.173 2.803 2.039 0 3.691-1.816 3.691-4.057 0-2.324-2.184-4.209-4.879-4.209-2.828 0-5.121 2.385-5.121 5.326 0 2.857 2.483 5.174 5.548 5.174a5.792 5.792 0 0 0 3.359-1.057 5.366 5.366 0 0 1-2.332.525c-2.699.003-4.886-1.94-4.886-4.336z" fill="currentColor" />
</svg>