<svg xmlns="http://www.w3.org/2000/svg" viewBox="-261.25 462.008 10 11.451">
    <path d="M-252.679 465.53c-.544.768-1.404 1.347-2.421 1.6a6.392 6.392 0 0 0-.426 2.345c0 1.761.651 3.279 1.592 3.985a5 5 0 0 0 1.255-7.93zM-259.821 465.53a5 5 0 0 0 1.255 7.93c.941-.706 1.592-2.225 1.592-3.985 0-.862-.157-1.665-.426-2.345-1.017-.254-1.877-.833-2.421-1.6zM-254.013 464.557a4.875 4.875 0 0 0-1.098-.397c.343-.569.766-1.122 1.252-1.697a.276.276 0 1 0-.421-.357c-.557.658-1.035 1.291-1.412 1.954a4.921 4.921 0 0 0-1.117 0c-.377-.663-.855-1.296-1.412-1.954a.276.276 0 1 0-.421.357c.486.575.909 1.128 1.252 1.697-.385.09-.753.224-1.098.397.431.629 1.272 1.059 2.237 1.059s1.808-.43 2.238-1.059z" fill="currentColor" />
</svg>