<svg xmlns="http://www.w3.org/2000/svg" viewBox="-262.167 465.5 10 13">
    <path d="M-254.035 468.602c.048.167.076.348.076.537 0 .828-.507 1.498-1.132 1.498-.625 0-1.132-.67-1.132-1.498 0-.265.052-.512.143-.728.238-.563.026-2.233-.549-2.911 0 3.377-5.537 4.713-4.122 7.367-.547-.39-.958-.789-1.155-1.259a5.414 5.414 0 0 0-.26 1.655c0 2.892 2.257 5.236 5.042 5.236.496 0 .976-.075 1.429-.215-2.09-.112-3.747-1.666-3.747-3.567 0-1.194.655-2.251 1.66-2.899a1.912 1.912 0 0 0-.777 2.018c.069-.77.754-1.375 1.589-1.375.882 0 1.597.673 1.597 1.502 0 .468-.226.885-.581 1.16a1.907 1.907 0 0 0 1.076-1.724c0-.536-.218-1.021-.568-1.366a3.03 3.03 0 0 1 1.417 2.576c0 .627-.187 1.209-.506 1.691 1.387-.626 2.37-2.175 2.37-3.988-.002-1.585-.753-2.969-1.87-3.71z" fill="currentColor" />
</svg>